<?xml version="1.0" encoding="UTF-8" standalone="no"?>
<svg
   xmlns:dc="http://purl.org/dc/elements/1.1/"
   xmlns:cc="http://creativecommons.org/ns#"
   xmlns:rdf="http://www.w3.org/1999/02/22-rdf-syntax-ns#"
   xmlns:svg="http://www.w3.org/2000/svg"
   xmlns="http://www.w3.org/2000/svg"
   id="svg8"
   version="1.1"
   viewBox="0 0 6.3499998 6.3499998"
   height="24"
   width="24">
  <defs
     id="defs2" />
  <metadata
     id="metadata5">
    <rdf:RDF>
      <cc:Work
         rdf:about="">
        <dc:format>image/svg+xml</dc:format>
        <dc:type
           rdf:resource="http://purl.org/dc/dcmitype/StillImage" />
        <dc:title></dc:title>
      </cc:Work>
    </rdf:RDF>
  </metadata>
  <g
     transform="translate(0,-290.65)"
     id="layer1">
    <g
       transform="translate(10.034284,39.309523)"
       id="layer1-5">
      <path
         id="path3919"
         d="m -7.4384185,251.90272 a 1.4552083,1.6288412 0 0 0 -1.4552083,1.62884 1.4552083,1.6288412 0 0 0 1.4552083,1.62884 1.4552083,1.6288412 0 0 0 1.4552083,-1.62884 1.4552083,1.6288412 0 0 0 -1.4552083,-1.62884 z m 0,0.23099 a 1.2126736,1.3573676 0 0 1 1.2128457,1.35703 1.2126736,1.3573676 0 0 1 -1.2128457,1.35754 1.2126736,1.3573676 0 0 1 -1.2128459,-1.35754 1.2126736,1.3573676 0 0 1 1.2128459,-1.35703 z m 1.12913,2.61483 c -0.028141,0.006 -0.05248,0.019 -0.070797,0.0408 -0.073267,0.0873 -0.023487,0.27442 0.1116211,0.41962 l 1.0335286,1.11052 c 0.1351085,0.1452 0.3029379,0.1922 0.3762045,0.10491 0.073266,-0.0873 0.023487,-0.27442 -0.1116211,-0.41962 l -1.0335287,-1.11052 c -0.1013314,-0.1089 -0.2209845,-0.16264 -0.3054077,-0.14573 z"
         style="fill:#333;stroke-width:0.27563226" />
    </g>
  </g>
</svg>
